<?xml version="1.0" ?>
<!-- Uploaded to: SVG Repo, www.svgrepo.com, Generator: SVG Repo Mixer Tools -->
<svg fill="#000000" width="800px" height="800px" viewBox="0 0 64 64" xmlns="http://www.w3.org/2000/svg">
<g id="a"/>
<g id="b">
<path d="M51,17c-3.3086,0-6,2.6914-6,6,0,2.4388,1.4647,4.5383,3.5587,5.4756-.9632,3.502-2.6105,7.0683-3.6998,7.0683-1.1514,0-2.6665-3.5146-4.5024-10.4453l-.1074-.4043c-.1851-.6973-.3442-1.4043-.5-2.0938-.7397-3.2793-1.5044-6.6709-4.8198-6.6709-3.4756,0-4.812,5.0879-5.5303,7.8203-.0845,.3232-.1577,.6025-.2222,.8203-.7681,2.6016-1.9028,7.7715-3,12.7725l-.7349,3.3379c-1.1694,5.2812-1.7749,5.2812-2.6812,5.2812-.6691-.0701-2.8653-2.0901-4.897-4.4622,.7118-.9864,1.1363-2.1931,1.1363-3.4998,0-3.3086-2.6914-6-6-6s-6,2.6914-6,6,2.6914,6,6,6c1.2768,0,2.4593-.4039,3.433-1.0864,1.672,1.9514,4.5966,5.0483,6.317,5.0483,2.6763,0,3.5068-1.71,4.645-6.8496l.7354-3.3408c1.0894-4.9668,2.2163-10.1016,2.9644-12.6348,.0688-.2334,.1479-.5322,.2388-.8779,.4976-1.8936,1.6626-6.3291,3.5957-6.3291,1.5469,0,2.0854,1.6367,2.8691,5.1113,.1606,.7139,.3262,1.4453,.5181,2.167l.1064,.4023c1.666,6.2891,3.4121,11.9336,6.436,11.9336,2.9559,0,4.8743-5.7452,5.6384-8.5694,.1661,.0139,.333,.0255,.5027,.0255,3.3086,0,6-2.6914,6-6s-2.6914-6-6-6ZM9,38c0-2.2061,1.7944-4,4-4s4,1.7939,4,4-1.7944,4-4,4-4-1.7939-4-4Zm42-11c-2.2056,0-4-1.7939-4-4s1.7944-4,4-4,4,1.7939,4,4-1.7944,4-4,4Z"/>
</g>
</svg>